<svg xmlns="http://www.w3.org/2000/svg" width="12" height="13" viewBox="0 0 12 13">
  <path fill="#B9B9B9" fill-rule="evenodd" d="M384,17.217339 L388.164423,21.3107778 C388.587926,21.7270619 389.267755,21.7279599 389.686497,21.3163555 C390.108158,20.9018814 390.102698,20.2349112 389.680823,19.8202264 L385.516399,15.7267875 L389.680329,11.6338339 C390.103832,11.2175498 390.104745,10.5493092 389.686003,10.1377048 C389.264342,9.72323073 388.585806,9.72859754 388.16393,10.1432824 L384,14.2362361 L379.835577,10.1427972 C379.412074,9.72651316 378.732245,9.72561514 378.313503,10.1372196 C377.891842,10.5516936 377.897302,11.2186638 378.319177,11.6333486 L382.483601,15.7267875 L378.318684,19.8207116 C377.895181,20.2369956 377.894267,20.9052363 378.313009,21.3168407 C378.734671,21.7313147 379.413207,21.7259479 379.835083,21.3112631 L384,17.217339 Z" transform="translate(-378 -9)"/>
</svg>
